<svg width="159" height="164" viewBox="0 0 159 164" fill="none" xmlns="http://www.w3.org/2000/svg">
<g filter="url(#filter0_d_8_6)">
<ellipse cx="79.5" cy="78" rx="75.5" ry="78" fill="#733838"/>
<path d="M154.5 78C154.5 120.818 120.906 155.5 79.5 155.5C38.0939 155.5 4.5 120.818 4.5 78C4.5 35.1825 38.0939 0.5 79.5 0.5C120.906 0.5 154.5 35.1825 154.5 78Z" stroke="black"/>
</g>
<g filter="url(#filter1_d_8_6)">
<path d="M32.217 46.4283C32.0114 46.6078 31.8298 46.764 31.6722 46.897C31.5145 47.03 31.3791 47.1432 31.2659 47.2367C31.139 47.341 31.0294 47.4361 30.937 47.5221C30.8651 47.5832 30.7692 47.6676 30.6493 47.7752C30.5362 47.8687 30.3906 47.9944 30.2125 48.1523C30.0448 48.3065 29.8258 48.5055 29.5554 48.7494C29.615 48.458 29.6455 48.1917 29.6469 47.9505C29.6483 47.7093 29.631 47.4895 29.5949 47.2912C29.5589 47.0928 29.5024 46.9194 29.4256 46.7709C29.3591 46.6187 29.2844 46.4841 29.2013 46.3672C29.0064 46.1026 28.7674 45.895 28.4844 45.7443C28.0928 45.5856 27.7624 45.5077 27.4934 45.5104C27.2348 45.5094 27.0243 45.5528 26.8621 45.6404C26.7032 45.721 26.5869 45.8303 26.5133 45.9683C26.4429 46.0992 26.4073 46.2206 26.4064 46.3325C26.4017 46.4339 26.4788 46.5911 26.6375 46.8041C26.8033 47.0205 27.0031 47.2744 27.2371 47.5661C27.4814 47.854 27.7369 48.173 28.0037 48.5233C28.2737 48.8665 28.5056 49.2176 28.6991 49.5766C28.9031 49.9318 29.0476 50.2849 29.1326 50.6359C29.228 50.9832 29.2197 51.3032 29.1077 51.5958C28.959 51.9662 28.8023 52.2897 28.6374 52.5661C28.4726 52.8425 28.2571 53.0432 27.9909 53.1682C27.7247 53.2932 27.3831 53.3308 26.966 53.2811C26.5561 53.2347 26.0299 53.0774 25.3877 52.8092C24.7242 52.5311 24.2073 52.2443 23.837 51.9488C23.4667 51.6534 23.1907 51.3592 23.0092 51.0664C22.8347 50.7768 22.7322 50.4996 22.7016 50.2347C22.678 49.9732 22.6813 49.7372 22.7114 49.5268C22.7448 49.3094 22.7825 49.1285 22.8246 48.9843C22.87 48.8329 22.8746 48.7315 22.8385 48.6799C22.7986 48.6179 22.7571 48.5595 22.7139 48.5045C22.6777 48.453 22.6364 48.4032 22.5898 48.3554C22.5466 48.3005 22.5017 48.2491 22.4552 48.2013L25.7747 49.1569C25.5314 49.215 25.332 49.2808 25.1764 49.3543C25.0279 49.4311 24.9073 49.5038 24.8145 49.5724C24.708 49.6517 24.6225 49.7324 24.558 49.8142C24.4973 49.9065 24.4708 50.0452 24.4786 50.2302C24.4864 50.4153 24.5241 50.6101 24.5917 50.8147C24.6698 51.0156 24.779 51.2053 24.9195 51.3837C25.0599 51.5622 25.2324 51.691 25.4369 51.7701C25.6943 51.8655 25.924 51.9004 26.1261 51.8747C26.3315 51.842 26.5098 51.7662 26.6608 51.6474C26.8188 51.5319 26.9483 51.3856 27.049 51.2085C27.1497 51.0314 27.217 50.8429 27.2508 50.6429C27.295 50.4392 27.3043 50.2363 27.2786 50.0342C27.2563 49.825 27.203 49.6358 27.1187 49.4665C27.0385 49.3251 26.8895 49.1555 26.6717 48.9579C26.461 48.7636 26.2219 48.5472 25.9542 48.3088C25.6937 48.0737 25.4291 47.8195 25.1607 47.5461C24.8993 47.2761 24.6795 46.9911 24.5013 46.6912C24.3302 46.3946 24.2235 46.0896 24.1813 45.776C24.1461 45.4658 24.2261 45.1494 24.4213 44.8268C24.5862 44.5504 24.7913 44.3534 25.0367 44.2359C25.2925 44.1146 25.5672 44.0541 25.8607 44.0543C26.1647 44.0507 26.4784 44.0906 26.8019 44.174C27.1324 44.2607 27.4548 44.3738 27.7691 44.5132C28.0937 44.649 28.403 44.7991 28.6969 44.9635C28.9979 45.1313 29.2653 45.2876 29.4994 45.4324C29.7334 45.5773 29.9285 45.7038 30.0848 45.812C30.2515 45.9165 30.3544 45.9822 30.3934 46.0093C30.5705 46.11 30.7559 46.1931 30.9496 46.2585C31.1188 46.321 31.3105 46.3724 31.5246 46.4129C31.7491 46.4496 31.9799 46.4547 32.217 46.4283ZM36.249 48.0437C36.6239 48.2377 36.9758 48.4899 37.3045 48.8003C37.6436 49.1069 37.9143 49.4763 38.1166 49.9085C38.3221 50.3336 38.4399 50.8166 38.47 51.3576C38.5033 51.8916 38.4034 52.4792 38.1701 53.1207C37.9831 53.6458 37.6847 54.114 37.2749 54.5254C36.8754 54.9331 36.4272 55.2703 35.9301 55.5369C35.433 55.8036 34.9184 55.9885 34.3861 56.0917C33.8571 56.1879 33.3731 56.1886 32.934 56.094C32.6671 56.0373 32.3988 55.9194 32.129 55.7405C31.8696 55.5578 31.6215 55.3329 31.3847 55.0658C31.1582 54.7949 30.952 54.4904 30.7659 54.1523C30.5869 53.8174 30.4459 53.466 30.343 53.0979C30.2434 52.7228 30.1892 52.3431 30.1803 51.9589C30.1784 51.578 30.2398 51.2096 30.3643 50.8537C30.4622 50.5544 30.6052 50.2418 30.7934 49.9159C30.9919 49.5863 31.2206 49.2752 31.4794 48.9826C31.7486 48.6863 32.05 48.4224 32.3837 48.191C32.7277 47.9559 33.1012 47.7865 33.5042 47.6827C33.9105 47.572 34.3397 47.541 34.7916 47.59C35.254 47.6352 35.7398 47.7864 36.249 48.0437ZM32.3281 51.4425C31.8727 52.152 31.657 52.7931 31.6807 53.3657C31.7116 53.9416 31.951 54.3956 32.3991 54.7277C32.616 54.8904 32.869 54.9492 33.158 54.904C33.4574 54.8552 33.7673 54.7291 34.0876 54.526C34.4079 54.3229 34.7268 54.0586 35.0443 53.7332C35.3617 53.4078 35.6522 53.0481 35.9156 52.6541C36.1791 52.26 36.3625 51.8801 36.4658 51.5142C36.5796 51.1446 36.6295 50.8097 36.6155 50.5095C36.6049 50.2022 36.5393 49.9381 36.4189 49.7172C36.3055 49.4997 36.1567 49.3389 35.9726 49.2348C35.6504 49.0571 35.3191 49.0088 34.9785 49.0901C34.6412 49.1644 34.3145 49.317 33.9983 49.548C33.6821 49.779 33.3795 50.0639 33.0903 50.4026C32.8081 50.7446 32.5541 51.0913 32.3281 51.4425ZM39.7742 50.1846C39.9971 50.2982 40.1933 50.395 40.3629 50.4749C40.5358 50.5478 40.6753 50.6092 40.7813 50.6592L41.0887 50.8041C41.1698 50.8337 41.2668 50.8751 41.3799 50.9284C41.4788 50.975 41.599 51.0316 41.7403 51.0983C41.8816 51.1649 42.0425 51.245 42.2229 51.3387C42.1862 51.5632 42.1582 51.7875 42.1389 52.0116C42.1301 52.232 42.1189 52.4297 42.1055 52.6048C42.0929 52.8148 42.0853 53.0141 42.0827 53.2029C42.0801 53.3917 42.0766 53.6189 42.0723 53.8846C42.0705 54.1084 42.0664 54.3828 42.06 54.708C42.0569 55.0261 42.0566 55.393 42.0593 55.8088C42.2403 55.6264 42.4059 55.4583 42.5561 55.3045C42.7134 55.1541 42.8484 55.0234 42.9611 54.9125C43.0909 54.7836 43.2035 54.6639 43.2988 54.5534C43.3941 54.4428 43.5062 54.3057 43.6352 54.1419C43.7438 54.0031 43.871 53.8342 44.0166 53.6351C44.1693 53.4393 44.3387 53.2082 44.5248 52.9418C44.7297 53.0384 44.9134 53.125 45.076 53.2016C45.2385 53.2782 45.3815 53.3413 45.505 53.3909C45.6393 53.4541 45.7611 53.5072 45.8704 53.5501C45.9835 53.6034 46.1387 53.668 46.3362 53.7438C46.5054 53.8062 46.7259 53.8972 46.9978 54.0167C47.2801 54.1325 47.6276 54.2747 48.0404 54.4434C47.842 54.4794 47.672 54.5288 47.5301 54.5915C47.3987 54.6505 47.2899 54.7072 47.2038 54.7616C47.104 54.8268 47.027 54.8985 46.9729 54.9766C46.9255 55.0406 46.8347 55.1965 46.7007 55.4443C46.5737 55.6953 46.4199 55.9942 46.2392 56.3409C46.0689 56.6838 45.887 57.0515 45.6934 57.4439C45.5069 57.8397 45.3339 58.2159 45.1744 58.5726C45.0149 58.9292 44.8806 59.2417 44.7715 59.5098C44.6728 59.7742 44.6245 59.95 44.6265 60.0374C44.636 60.1455 44.6565 60.2761 44.688 60.4291C44.7191 60.5647 44.7648 60.7244 44.8249 60.9082C44.8922 61.0954 44.9917 61.315 45.1233 61.567C44.7916 61.428 44.5145 61.3103 44.2921 61.2141C44.0768 61.1213 43.8968 61.0451 43.7521 60.9855C43.5862 60.916 43.4538 60.8579 43.3549 60.8113C43.2489 60.7613 43.1023 60.6966 42.9153 60.617C42.7494 60.5475 42.5289 60.4565 42.2537 60.3441C41.9818 60.2246 41.6289 60.0755 41.1948 59.8968C41.3471 59.8304 41.4922 59.7606 41.6303 59.6875C41.7684 59.6144 41.8874 59.5453 41.9872 59.48C42.1079 59.4073 42.2162 59.3332 42.3123 59.2576C42.4251 59.1466 42.5789 58.9211 42.7737 58.5811C42.9452 58.2905 43.1712 57.8659 43.4518 57.3072C43.7357 56.7415 44.0971 55.9747 44.536 55.007C44.2985 55.1628 44.0751 55.3252 43.8658 55.4943C43.6669 55.6597 43.487 55.8124 43.326 55.9524C43.1446 56.1174 42.9736 56.2786 42.813 56.4361C42.6491 56.6007 42.4716 56.7848 42.2806 56.9884C42.1134 57.1601 41.9137 57.3639 41.6815 57.5999C41.4564 57.8393 41.2038 58.1003 40.9238 58.3829L40.511 58.2142C40.5877 57.9049 40.6511 57.6239 40.7011 57.3711C40.7545 57.1112 40.7912 56.8867 40.8113 56.6975C40.8376 56.4767 40.854 56.2771 40.8603 56.0988C40.8596 55.917 40.8601 55.7143 40.8619 55.4906C40.8575 55.2985 40.8487 55.0698 40.8355 54.8045C40.8295 54.5425 40.8174 54.2475 40.7993 53.9194C40.3889 54.6069 40.07 55.1735 39.8427 55.6191C39.6187 56.0577 39.4555 56.404 39.3531 56.658C39.2273 56.9614 39.1469 57.187 39.1119 57.3346C39.0977 57.4747 39.1015 57.6406 39.1235 57.8323C39.1412 57.9961 39.1756 58.198 39.2266 58.438C39.288 58.6742 39.3783 58.95 39.4974 59.2652C39.342 59.1919 39.1794 59.1153 39.0098 59.0354C38.8402 58.9555 38.6831 58.8857 38.5384 58.8262C38.3655 58.7533 38.1977 58.6785 38.0352 58.6019C37.8623 58.5291 37.6594 58.4464 37.4266 58.354C37.2221 58.2748 36.9787 58.1774 36.6964 58.0616C36.4141 57.9458 36.0845 57.8207 35.7074 57.6862C35.9095 57.6605 36.0817 57.625 36.2239 57.5798C36.3695 57.5275 36.4888 57.4758 36.582 57.4247C36.696 57.3662 36.7923 57.2993 36.8709 57.224C36.9188 57.1775 36.9947 57.0622 37.0988 56.878C37.2099 56.6972 37.3375 56.4723 37.4815 56.2034C37.6326 55.9378 37.7917 55.637 37.9586 55.3011C38.1326 54.9686 38.3048 54.6308 38.475 54.2879C38.6557 53.9412 38.8279 53.6035 38.9915 53.2746C39.1584 52.9388 39.3052 52.6366 39.4318 52.368C39.5687 52.0957 39.6805 51.8677 39.7671 51.684C39.8537 51.5003 39.9087 51.3836 39.932 51.3342C39.9607 51.2182 39.9789 51.0972 39.9865 50.9712C39.9944 50.8627 39.9829 50.7406 39.9518 50.6051C39.9207 50.4695 39.8615 50.3293 39.7742 50.1846ZM48.3287 54.2165C48.5515 54.3302 48.7477 54.4269 48.9173 54.5069C49.0903 54.5798 49.2297 54.6412 49.3357 54.6911L49.6432 54.836C49.7242 54.8656 49.8213 54.907 49.9344 54.9603C50.0333 55.007 50.1534 55.0636 50.2948 55.1302C50.4361 55.1968 50.597 55.277 50.7774 55.3706C50.7407 55.5951 50.7127 55.8195 50.6934 56.0436C50.6845 56.264 50.6734 56.4617 50.66 56.6367C50.6474 56.8467 50.6398 57.0461 50.6372 57.2349C50.6346 57.4236 50.6311 57.6509 50.6268 57.9166C50.625 58.1403 50.6209 58.4147 50.6144 58.7399C50.6113 59.058 50.6111 59.425 50.6138 59.8408C50.7948 59.6583 50.9604 59.4902 51.1106 59.3365C51.2678 59.186 51.4028 59.0554 51.5156 58.9444C51.6454 58.8156 51.758 58.6959 51.8532 58.5853C51.9485 58.4748 52.0607 58.3376 52.1897 58.1739C52.2983 58.0351 52.4254 57.8661 52.5711 57.667C52.7238 57.4713 52.8932 57.2402 53.0792 56.9737C53.2842 57.0703 53.4679 57.1569 53.6304 57.2335C53.793 57.3102 53.936 57.3732 54.0594 57.4228C54.1937 57.4861 54.3155 57.5392 54.4249 57.5821C54.5379 57.6354 54.6932 57.6999 54.8907 57.7757C55.0599 57.8382 55.2804 57.9292 55.5523 58.0487C55.8345 58.1644 56.1821 58.3067 56.5949 58.4753C56.3965 58.5114 56.2264 58.5607 56.0846 58.6234C55.9532 58.6824 55.8444 58.7391 55.7583 58.7935C55.6584 58.8587 55.5815 58.9304 55.5274 59.0086C55.4799 59.0726 55.3892 59.2285 55.2551 59.4762C55.1282 59.7273 54.9743 60.0262 54.7937 60.3728C54.6234 60.7158 54.4415 61.0835 54.2479 61.4759C54.0613 61.8716 53.8883 62.2478 53.7289 62.6045C53.5694 62.9612 53.4351 63.2736 53.326 63.5417C53.2273 63.8061 53.1789 63.982 53.181 64.0693C53.1905 64.1774 53.211 64.308 53.2425 64.4611C53.2736 64.5966 53.3192 64.7563 53.3794 64.9402C53.4467 65.1273 53.5461 65.3469 53.6778 65.599C53.346 65.4599 53.069 65.3423 52.8466 65.2461C52.6312 65.1532 52.4512 65.077 52.3066 65.0175C52.1407 64.9479 52.0083 64.8898 51.9093 64.8432C51.8033 64.7933 51.6568 64.7285 51.4697 64.649C51.3039 64.5794 51.0833 64.4884 50.8081 64.376C50.5363 64.2565 50.1833 64.1074 49.7493 63.9288C49.9015 63.8623 50.0467 63.7926 50.1848 63.7195C50.3229 63.6464 50.4419 63.5772 50.5417 63.512C50.6623 63.4393 50.7707 63.3651 50.8668 63.2895C50.9795 63.1786 51.1333 62.9531 51.3281 62.613C51.4996 62.3225 51.7257 61.8979 52.0063 61.3392C52.2902 60.7734 52.6516 60.0067 53.0904 59.0389C52.8529 59.1947 52.6295 59.3571 52.4203 59.5263C52.2214 59.6916 52.0415 59.8443 51.8805 59.9844C51.6991 60.1493 51.5281 60.3106 51.3675 60.4681C51.2035 60.6326 51.0261 60.8167 50.8351 61.0204C50.6678 61.192 50.4681 61.3958 50.236 61.6319C50.0109 61.8713 49.7583 62.1322 49.4783 62.4148L49.0655 62.2462C49.1422 61.9369 49.2055 61.6558 49.2556 61.403C49.309 61.1432 49.3457 60.9186 49.3658 60.7295C49.3921 60.5087 49.4084 60.3091 49.4148 60.1307C49.4141 59.949 49.4146 59.7463 49.4164 59.5226C49.4119 59.3305 49.4031 59.1018 49.39 58.8365C49.3839 58.5745 49.3718 58.2795 49.3537 57.9514C48.9433 58.6389 48.6245 59.2054 48.3972 59.6511C48.1732 60.0896 48.01 60.4359 47.9075 60.6899C47.7818 60.9934 47.7014 61.2189 47.6664 61.3665C47.6521 61.5066 47.656 61.6725 47.6779 61.8642C47.6957 62.0281 47.7301 62.23 47.7811 62.4699C47.8425 62.7062 47.9328 62.9819 48.0519 63.2972C47.8964 63.2239 47.7339 63.1473 47.5643 63.0673C47.3947 62.9874 47.2376 62.9177 47.0929 62.8581C46.9199 62.7852 46.7522 62.7105 46.5897 62.6339C46.4167 62.561 46.2139 62.4783 45.9811 62.3859C45.7765 62.3068 45.5331 62.2093 45.2509 62.0936C44.9686 61.9778 44.6389 61.8526 44.2619 61.7181C44.464 61.6924 44.6361 61.657 44.7784 61.6117C44.9239 61.5594 45.0433 61.5077 45.1365 61.4567C45.2504 61.3981 45.3467 61.3312 45.4254 61.256C45.4732 61.2094 45.5492 61.0941 45.6533 60.91C45.7644 60.7291 45.892 60.5043 46.036 60.2353C46.1871 59.9697 46.3461 59.669 46.5131 59.3331C46.6871 59.0005 46.8592 58.6628 47.0295 58.3198C47.2102 57.9732 47.3823 57.6354 47.5459 57.3066C47.7129 56.9707 47.8596 56.6685 47.9862 56.4C48.1232 56.1277 48.235 55.8997 48.3216 55.7159C48.4082 55.5322 48.4631 55.4156 48.4864 55.3661C48.5152 55.2501 48.5334 55.1291 48.5409 55.0031C48.5489 54.8946 48.5373 54.7726 48.5062 54.637C48.4751 54.5014 48.4159 54.3613 48.3287 54.2165ZM58.4536 59.5068C58.7969 59.6946 59.0854 59.8521 59.319 59.9795C59.563 60.1032 59.7647 60.2068 59.9239 60.2905C60.1043 60.3842 60.2597 60.4574 60.3903 60.5103C60.5208 60.5632 60.7023 60.6271 60.9347 60.7021C61.1284 60.7675 61.3872 60.8506 61.7111 60.9515C62.0453 61.0486 62.4604 61.1665 62.9564 61.3053C62.7173 61.3912 62.5201 61.4796 62.365 61.5706C62.2202 61.6578 62.1015 61.7357 62.0087 61.8043C61.8989 61.8907 61.815 61.9678 61.7572 62.0355C61.7097 62.0995 61.6406 62.2829 61.5498 62.5855C61.4589 62.8882 61.3608 63.2522 61.2553 63.6775C61.1532 64.0958 61.0448 64.5456 60.9302 65.027C60.8189 65.5014 60.7192 65.9511 60.6312 66.376C60.5466 66.7938 60.4763 67.1537 60.4204 67.4555C60.3749 67.7536 60.3581 67.9358 60.3702 68.0019C60.4062 68.2003 60.4267 68.3308 60.4317 68.3936C60.44 68.4493 60.4711 68.5115 60.5251 68.5802C60.5467 68.6076 60.5827 68.6505 60.6329 68.7087C60.6762 68.7636 60.7337 68.8339 60.8056 68.9196C60.8845 69.0087 60.9849 69.1164 61.1067 69.2429C60.8244 69.1272 60.5826 69.0262 60.3814 68.94C60.1836 68.8467 60.0194 68.7736 59.8888 68.7208C59.7371 68.6579 59.6066 68.605 59.4972 68.5621C59.3912 68.5121 59.2607 68.4592 59.1056 68.4034C58.9718 68.3576 58.799 68.2935 58.5874 68.211C58.3829 68.1319 58.143 68.0361 57.8678 67.9237C58.0558 67.8913 58.2105 67.8563 58.3319 67.8185C58.4638 67.777 58.5677 67.7397 58.6439 67.7064C58.7337 67.6624 58.8025 67.6171 58.8504 67.5706C58.8945 67.5137 58.9501 67.4232 59.0171 67.2994C59.0775 67.1896 59.1474 67.0412 59.2269 66.8542C59.3098 66.66 59.4087 66.4044 59.5237 66.0872L56.6009 65.0594C56.4736 65.1462 56.3706 65.2272 56.292 65.3024C56.2167 65.3706 56.157 65.4331 56.1129 65.4901C56.055 65.5578 56.018 65.6181 56.0017 65.6709C55.9892 65.7341 55.9823 65.8129 55.981 65.9073C55.983 65.9946 55.9925 66.1027 56.0095 66.2316C56.0369 66.3568 56.0877 66.5146 56.162 66.7051C55.9887 66.6148 55.8102 66.5263 55.6264 66.4397C55.4427 66.3531 55.2714 66.2767 55.1126 66.2105C54.9255 66.131 54.742 66.0531 54.562 65.9769C54.382 65.9007 54.1756 65.8163 53.9428 65.7239C53.7453 65.6481 53.5144 65.5608 53.25 65.4621C52.9818 65.353 52.6927 65.2427 52.3826 65.131C52.6063 65.1328 52.8017 65.1213 52.9689 65.0965C53.1394 65.0645 53.2854 65.0297 53.4068 64.9919C53.5457 64.9538 53.6688 64.9125 53.7761 64.868C53.8589 64.8207 54.0345 64.7048 54.3028 64.5203C54.5744 64.3288 54.8854 64.0997 55.2357 63.8329C55.593 63.5695 55.9691 63.2847 56.3639 62.9785C56.7657 62.6756 57.1347 62.3874 57.4709 62.114C57.8104 61.8336 58.0947 61.5876 58.324 61.3761C58.5532 61.1645 58.6862 61.0199 58.7228 60.9422C58.752 60.8436 58.7649 60.7245 58.7617 60.5848C58.7588 60.4626 58.7344 60.3128 58.6884 60.1357C58.6494 59.9618 58.5711 59.7522 58.4536 59.5068ZM59.7662 65.2428C59.8404 64.9755 59.9014 64.7451 59.9494 64.5518C60.0006 64.3514 60.044 64.1861 60.0794 64.056C60.1177 63.9014 60.1548 63.7677 60.1907 63.655C60.2161 63.5461 60.2513 63.4072 60.2963 63.2384C60.3313 63.0908 60.3743 62.9081 60.4251 62.6903C60.4864 62.4687 60.5554 62.2032 60.6321 61.8939C59.8495 62.5097 59.2403 62.9869 58.8043 63.3255C58.3787 63.6604 58.0682 63.907 57.8726 64.0653C57.6393 64.2489 57.5055 64.3586 57.4714 64.3944L59.7662 65.2428ZM63.4233 61.7715C63.9113 62.0187 64.3162 62.2225 64.638 62.3828C64.9701 62.5394 65.2387 62.6659 65.4436 62.7625L66.0054 63.0273L69.1643 64.5162C69.1118 64.6642 69.0575 64.807 69.0013 64.9446C68.9554 65.0785 68.9092 65.1949 68.8626 65.2938C68.806 65.4139 68.7508 65.5218 68.6971 65.6174C68.6434 65.713 68.5828 65.814 68.5154 65.9204C68.4546 66.0127 68.3905 66.1121 68.3231 66.2185C68.2557 66.3249 68.176 66.4298 68.084 66.5333C68.165 66.1051 68.1673 65.752 68.0909 65.4742C68.0216 65.1997 67.9239 64.9766 67.7975 64.8048C67.6496 64.6055 67.4678 64.4507 67.2521 64.3404C66.9557 64.218 66.7179 64.1361 66.5387 64.0948C66.3595 64.0536 66.209 64.0431 66.0871 64.0634C65.9653 64.0837 65.8596 64.1246 65.7702 64.1861C65.6911 64.2438 65.6036 64.3105 65.5075 64.3861C65.4251 64.4509 65.3246 64.5634 65.206 64.7234C65.1007 64.8551 64.9705 65.0399 64.8152 65.2776C64.6671 65.5187 64.4804 65.8323 64.2552 66.2185C64.4726 66.2519 64.6495 66.2705 64.7859 66.2743C64.9294 66.2815 65.0448 66.2841 65.1321 66.282C65.2298 66.2763 65.3047 66.264 65.3567 66.2454C65.4049 66.2163 65.484 66.1585 65.5938 66.0721C65.6828 65.9932 65.8026 65.8855 65.9532 65.7492C66.1109 65.6163 66.3127 65.4264 66.5586 65.1795C66.4195 65.5113 66.2983 65.7867 66.1951 66.0057C66.0952 66.2177 66.0171 66.3925 65.9609 66.5301C65.8876 66.6856 65.8328 66.811 65.7966 66.9062L65.6068 67.309C65.5368 67.4574 65.4419 67.6588 65.322 67.9132C65.2125 68.1639 65.0748 68.4833 64.9091 68.8716C64.9475 68.5702 64.9664 68.3286 64.9657 68.1469C64.9754 67.9614 64.9738 67.8182 64.961 67.7171C64.9477 67.5986 64.9282 67.5117 64.9025 67.4564C64.8597 67.4189 64.7992 67.3731 64.7211 67.319C64.6467 67.2753 64.5494 67.2252 64.4292 67.1685C64.3162 67.1153 64.163 67.0646 63.9697 67.0167C63.7653 67.3954 63.6135 67.7082 63.5144 67.9551C63.4257 68.1983 63.369 68.3919 63.3444 68.5357C63.3098 68.7008 63.3022 68.8268 63.3217 68.9137C63.3553 69.0073 63.4576 69.1202 63.6284 69.2526C63.8025 69.3778 64.0114 69.4935 64.255 69.5997C64.509 69.7022 64.7799 69.778 65.0676 69.8273C65.3553 69.8765 65.6364 69.8665 65.9109 69.7972C66.1226 69.7329 66.3615 69.6382 66.6277 69.5132C66.8523 69.4032 67.1127 69.2538 67.4089 69.0652C67.7121 68.88 68.0385 68.6365 68.388 68.3348C68.2098 68.6395 68.0637 68.8945 67.9496 69.0999C67.846 69.3015 67.7571 69.4625 67.683 69.5831C67.5989 69.7248 67.535 69.8329 67.4913 69.9073C67.4514 69.9921 67.3841 70.1072 67.2897 70.2527C67.2122 70.3803 67.1009 70.5524 66.9557 70.769C66.8208 70.9818 66.6454 71.2532 66.4294 71.5832C66.0939 71.4338 65.7761 71.2926 65.4759 71.1598C65.1791 71.0199 64.916 70.9002 64.6865 70.8007C64.4147 70.6812 64.164 70.5716 63.9345 70.4721C63.7013 70.3622 63.4384 70.2512 63.1457 70.1392C62.8917 70.0368 62.5884 69.9197 62.2359 69.7881C61.8904 69.6598 61.5046 69.5255 61.0785 69.3851C61.3403 68.9212 61.5782 68.4806 61.7922 68.0632C62.0166 67.6422 62.2089 67.2707 62.3692 66.949C62.5561 66.5707 62.7227 66.2174 62.8688 65.889C63.2872 65.0929 63.5828 64.429 63.7557 63.8973C63.9286 63.3656 64.006 63.0091 63.9878 62.8278C63.9687 62.7583 63.9369 62.6699 63.8925 62.5626C63.8555 62.4761 63.7989 62.3673 63.7224 62.2363C63.646 62.1053 63.5463 61.9503 63.4233 61.7715ZM70.7672 64.6887C70.9555 64.8206 71.124 64.9303 71.2728 65.0177C71.4287 65.1084 71.558 65.1823 71.6606 65.2394C71.7845 65.3064 71.8924 65.3615 71.9843 65.4048C72.0761 65.4481 72.2102 65.5027 72.3865 65.5685C72.5345 65.621 72.7265 65.6899 72.9627 65.7753C73.2059 65.864 73.5087 65.9636 73.8713 66.074C73.759 66.0556 73.6288 66.0936 73.4807 66.1879C73.343 66.2785 73.2074 66.383 73.0739 66.5014C72.9129 66.6414 72.7541 66.8041 72.5977 66.9895C72.4583 67.157 72.2714 67.3885 72.0371 67.684C71.8099 67.9828 71.5694 68.3099 71.3155 68.6653C71.0687 69.024 70.8327 69.3964 70.6075 69.7826C70.3857 70.1617 70.2071 70.5223 70.0717 70.8644C69.9435 71.2099 69.8807 71.5171 69.8834 71.7862C69.8895 72.0481 69.9988 72.2378 70.2112 72.3552C70.53 72.54 70.8039 72.6735 71.033 72.7555C71.2725 72.8338 71.4745 72.8816 71.6392 72.8987C71.8038 72.9159 71.94 72.9109 72.0477 72.884C72.1588 72.85 72.2505 72.8111 72.3229 72.7675C72.5125 72.6583 72.7274 72.5048 72.9675 72.307C73.2075 72.1092 73.4284 71.9153 73.6302 71.7254C73.8391 71.5389 74.0136 71.3793 74.1538 71.2467C74.294 71.1142 74.3624 71.0514 74.3591 71.0585C74.3525 71.0726 74.3106 71.1522 74.2336 71.2973C74.167 71.4386 74.0818 71.6101 73.9782 71.8117C73.8849 72.0096 73.7831 72.2164 73.6728 72.4321C73.5696 72.6512 73.4778 72.8368 73.3974 72.989C73.3304 73.1128 73.2567 73.2508 73.1764 73.403C73.106 73.5339 73.024 73.6896 72.9303 73.87C72.8437 74.0537 72.7417 74.2518 72.6243 74.4642C72.3375 74.3031 72.0615 74.1558 71.7963 74.0221C71.5311 73.8885 71.296 73.7734 71.0911 73.6768C70.8508 73.5635 70.6265 73.4621 70.4183 73.3726C70.1959 73.2764 69.9365 73.1671 69.64 73.0447C69.386 72.9423 69.0703 72.815 68.6928 72.663C68.3187 72.504 67.8847 72.3253 67.3908 72.1271C67.494 72.0548 67.5832 71.9846 67.6585 71.9164C67.7409 71.8516 67.806 71.7959 67.8539 71.7494C67.9154 71.692 67.9614 71.6403 67.9918 71.5942C68.1408 71.388 68.311 71.1185 68.5025 70.7855C68.6973 70.4455 68.895 70.0809 69.0957 69.6918C69.3034 69.3061 69.5039 68.9083 69.6971 68.4984C69.9006 68.0848 70.0822 67.6996 70.2416 67.343C70.4011 66.9863 70.5319 66.6722 70.6339 66.4007C70.743 66.1326 70.8068 65.9424 70.8251 65.8301C70.8431 65.7004 70.854 65.5674 70.8578 65.431C70.862 65.3121 70.8557 65.1881 70.8387 65.0592C70.8321 64.9266 70.8083 64.8031 70.7672 64.6887ZM75.9529 67.677C76.4409 67.9243 76.8458 68.1281 77.1676 68.2883C77.4997 68.4449 77.7682 68.5715 77.9732 68.6681L78.535 68.9329L81.6939 70.4217C81.6414 70.5697 81.5871 70.7125 81.5308 70.8501C81.485 70.984 81.4388 71.1004 81.3922 71.1993C81.3355 71.3195 81.2804 71.4273 81.2267 71.5229C81.173 71.6185 81.1124 71.7196 81.045 71.826C80.9842 71.9182 80.9201 72.0176 80.8527 72.124C80.7853 72.2304 80.7056 72.3353 80.6136 72.4388C80.6946 72.0106 80.6969 71.6576 80.6205 71.3797C80.5512 71.1053 80.4534 70.8821 80.3271 70.7103C80.1792 70.511 79.9974 70.3562 79.7817 70.2459C79.4853 70.1235 79.2475 70.0416 79.0683 70.0004C78.8891 69.9591 78.7386 69.9486 78.6167 69.9689C78.4949 69.9892 78.3892 70.0301 78.2998 70.0916C78.2207 70.1493 78.1332 70.216 78.0371 70.2917C77.9547 70.3565 77.8542 70.4689 77.7356 70.6289C77.6303 70.7607 77.5001 70.9454 77.3448 71.1832C77.1966 71.4242 77.01 71.7379 76.7848 72.124C77.0022 72.1574 77.1791 72.176 77.3155 72.1799C77.459 72.187 77.5744 72.1896 77.6617 72.1876C77.7594 72.1818 77.8343 72.1696 77.8863 72.1509C77.9345 72.1218 78.0135 72.0641 78.1234 71.9776C78.2124 71.8987 78.3322 71.7911 78.4828 71.6548C78.6405 71.5218 78.8423 71.3319 79.0882 71.085C78.9491 71.4168 78.8279 71.6922 78.7247 71.9113C78.6248 72.1233 78.5467 72.2981 78.4905 72.4357C78.4172 72.5911 78.3624 72.7165 78.3262 72.8117L78.1363 73.2145C78.0664 73.3629 77.9715 73.5643 77.8516 73.8187C77.7421 74.0694 77.6044 74.3889 77.4387 74.7771C77.4771 74.4757 77.496 74.2341 77.4953 74.0524C77.5049 73.8669 77.5034 73.7237 77.4905 73.6226C77.4773 73.5041 77.4578 73.4172 77.4321 73.3619C77.3893 73.3244 77.3288 73.2787 77.2506 73.2246C77.1762 73.1809 77.079 73.1307 76.9588 73.0741C76.8458 73.0208 76.6926 72.9702 76.4992 72.9222C76.2948 73.3009 76.1431 73.6137 76.044 73.8607C75.9553 74.1039 75.8986 74.2974 75.874 74.4412C75.8394 74.6063 75.8318 74.7323 75.8513 74.8192C75.8849 74.9128 75.9871 75.0257 76.158 75.1581C76.3321 75.2833 76.541 75.3991 76.7846 75.5052C77.0386 75.6077 77.3095 75.6835 77.5972 75.7328C77.8849 75.782 78.166 75.772 78.4405 75.7027C78.6522 75.6384 78.8911 75.5437 79.1573 75.4187C79.3819 75.3087 79.6423 75.1593 79.9385 74.9707C80.2417 74.7855 80.5681 74.542 80.9175 74.2403C80.7394 74.545 80.5933 74.8 80.4792 75.0054C80.3756 75.207 80.2867 75.3681 80.2126 75.4886C80.1285 75.6303 80.0646 75.7384 80.0209 75.8128C79.981 75.8976 79.9137 76.0128 79.8193 76.1582C79.7418 76.2859 79.6305 76.4579 79.4852 76.6745C79.3504 76.8873 79.175 77.1587 78.959 77.4888C78.6235 77.3393 78.3057 77.1981 78.0055 77.0653C77.7087 76.9254 77.4456 76.8057 77.2161 76.7062C76.9442 76.5867 76.6936 76.4772 76.4641 76.3776C76.2309 76.2677 75.968 76.1568 75.6753 76.0447C75.4213 75.9423 75.118 75.8253 74.7655 75.6936C74.42 75.5654 74.0342 75.431 73.6081 75.2906C73.8699 74.8267 74.1078 74.3861 74.3218 73.9688C74.5462 73.5477 74.7385 73.1763 74.8988 72.8545C75.0857 72.4762 75.2523 72.1229 75.3984 71.7945C75.8168 70.9984 76.1124 70.3346 76.2853 69.8028C76.4582 69.2711 76.5356 68.9146 76.5174 68.7333C76.4983 68.6638 76.4665 68.5755 76.4221 68.4681C76.3851 68.3816 76.3284 68.2729 76.252 68.1418C76.1756 68.0108 76.0759 67.8559 75.9529 67.677ZM83.2736 70.7258C83.4972 70.8744 83.6976 70.999 83.8747 71.0998C84.0588 71.2038 84.2111 71.2929 84.3317 71.367C84.4734 71.4511 84.5973 71.5181 84.7033 71.5681L85.1167 71.7629C85.3923 71.8928 85.8531 72.0971 86.4992 72.3756C86.3204 72.3518 86.1563 72.3609 86.007 72.4028C85.8648 72.448 85.7385 72.5051 85.6283 72.5741C85.4973 72.6505 85.3858 72.7405 85.2938 72.844C85.1815 72.9724 85.0493 73.1519 84.8974 73.3826C84.7588 73.585 84.5886 73.8546 84.3867 74.1913C84.1919 74.5313 83.9555 74.9597 83.6774 75.4764C84.1445 75.2733 84.5544 75.0908 84.9071 74.9288C85.2669 74.7702 85.5799 74.6284 85.8461 74.5034C86.1123 74.3784 86.3369 74.2683 86.5199 74.1732C86.71 74.0815 86.8689 74.0009 86.9966 73.9315C87.2936 73.7778 87.4762 73.6653 87.5444 73.5938C87.5748 73.5476 87.5996 73.4859 87.6187 73.4086C87.6313 73.3454 87.6417 73.2683 87.6501 73.1772C87.6618 73.0791 87.6627 72.9672 87.6528 72.8416C87.9288 72.989 88.1641 73.1129 88.3586 73.2132C88.5602 73.3168 88.7265 73.4038 88.8574 73.4742C89.0096 73.5545 89.1351 73.618 89.234 73.6647L89.6792 73.8745C89.8418 73.9511 90.0538 74.051 90.3153 74.1743C90.5801 74.2905 90.912 74.4383 91.3111 74.6177C91.0196 74.5581 90.7323 74.5263 90.4492 74.5224C90.166 74.5185 89.9092 74.5227 89.6789 74.535C89.4102 74.5552 89.1541 74.5857 88.9104 74.6263C88.66 74.681 88.3768 74.7505 88.0607 74.8347C87.7933 74.9073 87.4758 75.0038 87.1081 75.1241C86.7438 75.2374 86.3399 75.3796 85.8966 75.5507C85.9215 76.3224 85.9556 76.9647 85.999 77.4774C86.0527 77.9864 86.1042 78.3994 86.1535 78.7162C86.204 79.0855 86.2579 79.3743 86.3152 79.5827C86.3791 79.7769 86.4625 79.9847 86.5655 80.2059C86.6502 80.3927 86.7636 80.6102 86.9057 80.8586C87.0511 81.0998 87.2299 81.3525 87.4423 81.6167L84.3512 80.3412C84.4203 80.3046 84.4766 80.2492 84.5203 80.1748C84.5745 80.0966 84.6182 80.0222 84.6515 79.9516C84.6881 79.8738 84.721 79.7857 84.7502 79.6872C84.7752 79.5608 84.7876 79.342 84.7874 79.031C84.7917 78.7653 84.7846 78.3863 84.7662 77.8939C84.7511 77.3945 84.7183 76.7313 84.6676 75.9042L83.3219 76.423C83.18 76.6324 83.0658 76.8291 82.9792 77.0128C82.8926 77.1965 82.828 77.3518 82.7855 77.4786C82.7368 77.637 82.7051 77.7775 82.6905 77.9002C82.6829 78.0262 82.6863 78.1746 82.7008 78.3455C82.7078 78.4956 82.726 78.6769 82.7554 78.8894C82.7847 79.1019 82.8341 79.3454 82.9034 79.6199C82.7608 79.5009 82.6116 79.396 82.4557 79.3053C82.3032 79.2075 82.1614 79.1234 82.0305 79.0531C81.8783 78.9727 81.7283 78.9063 81.5803 78.8538C81.4252 78.798 81.2421 78.7376 81.0309 78.6726C80.848 78.6209 80.6228 78.558 80.3555 78.4838C80.0882 78.4096 79.7805 78.3294 79.4325 78.2431C79.6313 78.2245 79.8016 78.1839 79.9434 78.1212C80.0853 78.0585 80.2078 77.991 80.3109 77.9187C80.4278 77.8356 80.5219 77.7461 80.593 77.65C80.6505 77.5648 80.7543 77.372 80.9046 77.0714C81.062 76.7742 81.2356 76.4242 81.4254 76.0214C81.6257 75.6148 81.8289 75.1837 82.035 74.7281C82.2411 74.2725 82.4339 73.8452 82.6133 73.4461C82.7928 73.047 82.9404 72.7064 83.0562 72.4241C83.1823 72.1381 83.2569 71.9616 83.2798 71.8947C83.3052 71.7857 83.3269 71.6664 83.3448 71.5367C83.3561 71.4211 83.355 71.2953 83.3413 71.1593C83.3381 71.0196 83.3155 70.8751 83.2736 70.7258ZM96.9532 76.9401C96.7476 77.1197 96.566 77.2759 96.4084 77.4089C96.2507 77.5418 96.1153 77.6551 96.0021 77.7485C95.8752 77.8528 95.7656 77.948 95.6732 78.034C95.6013 78.0951 95.5054 78.1794 95.3856 78.2871C95.2724 78.3806 95.1268 78.5063 94.9487 78.6642C94.781 78.8183 94.562 79.0174 94.2916 79.2613C94.3512 78.9698 94.3817 78.7035 94.3831 78.4624C94.3845 78.2212 94.3672 78.0014 94.3311 77.803C94.2951 77.6047 94.2386 77.4313 94.1618 77.2828C94.0953 77.1305 94.0206 76.996 93.9375 76.8791C93.7426 76.6145 93.5037 76.4069 93.2206 76.2562C92.829 76.0975 92.4987 76.0195 92.2296 76.0223C91.971 76.0213 91.7605 76.0646 91.5983 76.1523C91.4394 76.2328 91.3231 76.3421 91.2495 76.4801C91.1791 76.6111 91.1435 76.7325 91.1426 76.8443C91.138 76.9458 91.215 77.103 91.3737 77.316C91.5395 77.5323 91.7393 77.7863 91.9733 78.0779C92.2176 78.3658 92.4731 78.6849 92.7399 79.0352C93.0099 79.3784 93.2418 79.7295 93.4353 80.0885C93.6393 80.4437 93.7838 80.7968 93.8688 81.1478C93.9642 81.4951 93.9559 81.815 93.8439 82.1077C93.6952 82.4781 93.5385 82.8015 93.3736 83.0779C93.2088 83.3544 92.9933 83.5551 92.7271 83.6801C92.4609 83.8051 92.1193 83.8427 91.7022 83.793C91.2923 83.7466 90.7662 83.5893 90.1239 83.3211C89.4604 83.0429 88.9435 82.7561 88.5732 82.4607C88.2029 82.1652 87.9269 81.8711 87.7454 81.5782C87.5709 81.2887 87.4684 81.0115 87.4378 80.7466C87.4142 80.4851 87.4175 80.2491 87.4476 80.0387C87.481 79.8212 87.5187 79.6404 87.5608 79.4961C87.6062 79.3448 87.6108 79.2433 87.5747 79.1917C87.5348 79.1298 87.4933 79.0713 87.4501 79.0164C87.4139 78.9648 87.3726 78.9151 87.326 78.8673C87.2828 78.8123 87.2379 78.761 87.1914 78.7131L90.5109 79.6688C90.2676 79.7269 90.0682 79.7927 89.9126 79.8662C89.7642 79.943 89.6435 80.0157 89.5508 80.0842C89.4443 80.1636 89.3588 80.2442 89.2943 80.3261C89.2335 80.4184 89.207 80.557 89.2148 80.7421C89.2226 80.9271 89.2603 81.122 89.328 81.3266C89.406 81.5275 89.5153 81.7171 89.6557 81.8956C89.7961 82.0741 89.9686 82.2029 90.1732 82.282C90.4305 82.3774 90.6602 82.4122 90.8623 82.3866C91.0677 82.3539 91.246 82.2781 91.397 82.1593C91.5551 82.0437 91.6845 81.8975 91.7852 81.7204C91.8859 81.5433 91.9532 81.3548 91.987 81.1548C92.0312 80.9511 92.0405 80.7481 92.0148 80.546C91.9925 80.3369 91.9392 80.1476 91.8549 79.9784C91.7747 79.8369 91.6257 79.6674 91.408 79.4697C91.1973 79.2754 90.9581 79.0591 90.6904 78.8206C90.4299 78.5855 90.1654 78.3313 89.8969 78.058C89.6355 77.7879 89.4157 77.503 89.2375 77.2031C89.0664 76.9065 88.9597 76.6014 88.9175 76.2879C88.8823 75.9776 88.9623 75.6613 89.1576 75.3387C89.3224 75.0623 89.5275 74.8653 89.7729 74.7478C90.0287 74.6265 90.3034 74.566 90.597 74.5661C90.9009 74.5626 91.2146 74.6025 91.5381 74.6858C91.8686 74.7725 92.191 74.8856 92.5053 75.0251C92.83 75.1609 93.1392 75.311 93.4331 75.4754C93.7341 75.6431 94.0015 75.7994 94.2356 75.9443C94.4696 76.0891 94.6647 76.2157 94.821 76.3239C94.9877 76.4283 95.0906 76.4941 95.1296 76.5211C95.3067 76.6219 95.4921 76.705 95.6859 76.7704C95.8551 76.8328 96.0467 76.8843 96.2608 76.9248C96.4854 76.9615 96.7161 76.9666 96.9532 76.9401ZM98.3426 78.3076C98.686 78.4953 98.9745 78.6529 99.2081 78.7803C99.4521 78.9039 99.6537 79.0076 99.8129 79.0912C99.9933 79.1849 100.149 79.2582 100.279 79.3111C100.41 79.364 100.591 79.4279 100.824 79.5029C101.017 79.5683 101.276 79.6514 101.6 79.7522C101.934 79.8493 102.349 79.9672 102.845 80.106C102.606 80.1919 102.409 80.2804 102.254 80.3713C102.109 80.4586 101.99 80.5365 101.898 80.605C101.788 80.6915 101.704 80.7685 101.646 80.8363C101.599 80.9003 101.53 81.0836 101.439 81.3863C101.348 81.6889 101.25 82.0529 101.144 82.4782C101.042 82.8965 100.934 83.3463 100.819 83.8278C100.708 84.3022 100.608 84.7518 100.52 85.1767C100.436 85.5946 100.365 85.9544 100.309 86.2563C100.264 86.5544 100.247 86.7365 100.259 86.8026C100.295 87.001 100.316 87.1316 100.321 87.1944C100.329 87.2501 100.36 87.3123 100.414 87.3809C100.436 87.4084 100.472 87.4512 100.522 87.5095C100.565 87.5644 100.623 87.6347 100.695 87.7204C100.774 87.8094 100.874 87.9172 100.996 88.0437C100.713 87.9279 100.472 87.8269 100.27 87.7407C100.073 87.6475 99.9084 87.5744 99.7779 87.5215C99.6261 87.4586 99.4956 87.4057 99.3863 87.3628C99.2803 87.3129 99.1497 87.26 98.9947 87.2042C98.8608 87.1583 98.6881 87.0942 98.4765 87.0117C98.2719 86.9326 98.0321 86.8368 97.7569 86.7244C97.9448 86.6921 98.0995 86.657 98.221 86.6193C98.3528 86.5778 98.4568 86.5404 98.5329 86.5072C98.6227 86.4632 98.6916 86.4179 98.7394 86.3713C98.7835 86.3144 98.8391 86.224 98.9061 86.1001C98.9665 85.9904 99.0364 85.842 99.116 85.6549C99.1988 85.4608 99.2977 85.2051 99.4127 84.8879L96.4899 83.8601C96.3626 83.9469 96.2597 84.028 96.181 84.1032C96.1057 84.1713 96.046 84.2339 96.0019 84.2908C95.9441 84.3586 95.907 84.4188 95.8908 84.4716C95.8783 84.5348 95.8714 84.6136 95.8701 84.708C95.8721 84.7953 95.8816 84.9034 95.8985 85.0324C95.9259 85.1575 95.9768 85.3154 96.0511 85.5059C95.8777 85.4155 95.6992 85.3271 95.5155 85.2405C95.3317 85.1538 95.1604 85.0774 95.0016 85.0112C94.8146 84.9317 94.631 84.8538 94.451 84.7776C94.271 84.7014 94.0646 84.6171 93.8318 84.5246C93.6344 84.4488 93.4034 84.3616 93.139 84.2629C92.8709 84.1538 92.5818 84.0434 92.2716 83.9318C92.4953 83.9336 92.6908 83.9221 92.8579 83.8972C93.0284 83.8653 93.1744 83.8305 93.2959 83.7927C93.4348 83.7545 93.5579 83.7132 93.6652 83.6688C93.748 83.6214 93.9235 83.5055 94.1918 83.3211C94.4635 83.1295 94.7744 82.9004 95.1247 82.6337C95.482 82.3702 95.8581 82.0854 96.2529 81.7792C96.6548 81.4763 97.0238 81.1882 97.3599 80.9148C97.6994 80.6343 97.9838 80.3883 98.213 80.1768C98.4423 79.9653 98.5752 79.8207 98.6118 79.7429C98.641 79.6444 98.654 79.5253 98.6507 79.3856C98.6479 79.2633 98.6234 79.1136 98.5774 78.9364C98.5384 78.7626 98.4602 78.553 98.3426 78.3076ZM99.6552 84.0435C99.7294 83.7762 99.7905 83.5459 99.8384 83.3525C99.8897 83.1522 99.933 82.9869 99.9684 82.8568C100.007 82.7021 100.044 82.5684 100.08 82.4558C100.105 82.3468 100.14 82.208 100.185 82.0392C100.22 81.8916 100.263 81.7089 100.314 81.491C100.375 81.2694 100.444 81.004 100.521 80.6946C99.7386 81.3104 99.1293 81.7876 98.6933 82.1262C98.2678 82.4611 97.9572 82.7077 97.7617 82.866C97.5283 83.0497 97.3945 83.1594 97.3604 83.1951L99.6552 84.0435ZM104.146 80.5633C104.369 80.7119 104.57 80.8366 104.747 80.9373C104.931 81.0414 105.083 81.1305 105.204 81.2046C105.345 81.2886 105.469 81.3557 105.575 81.4056L105.989 81.6005C106.264 81.7304 106.725 81.9346 107.371 82.2132C107.192 82.1894 107.028 82.1984 106.879 82.2403C106.737 82.2856 106.611 82.3427 106.5 82.4116C106.369 82.4881 106.258 82.578 106.166 82.6815C106.054 82.8099 105.921 82.9895 105.769 83.2202C105.631 83.4226 105.461 83.6921 105.259 84.0288C105.064 84.3688 104.828 84.7972 104.549 85.3139C105.017 85.1108 105.426 84.9283 105.779 84.7664C106.139 84.6078 106.452 84.4659 106.718 84.3409C106.984 84.2159 107.209 84.1059 107.392 84.0108C107.582 83.919 107.741 83.8384 107.869 83.7691C108.166 83.6154 108.348 83.5028 108.416 83.4313C108.447 83.3852 108.472 83.3235 108.491 83.2461C108.503 83.1829 108.514 83.1058 108.522 83.0147C108.534 82.9166 108.535 82.8048 108.525 82.6792C108.801 82.8265 109.036 82.9504 109.231 83.0507C109.432 83.1544 109.599 83.2414 109.729 83.3117C109.882 83.3921 110.007 83.4556 110.106 83.5022L110.551 83.712C110.714 83.7887 110.926 83.8886 111.187 84.0118C111.452 84.128 111.784 84.2758 112.183 84.4553C111.892 84.3956 111.604 84.3639 111.321 84.3599C111.038 84.356 110.781 84.3602 110.551 84.3726C110.282 84.3928 110.026 84.4232 109.782 84.4638C109.532 84.5185 109.249 84.588 108.933 84.6722C108.665 84.7448 108.348 84.8413 107.98 84.9617C107.616 85.075 107.212 85.2172 106.769 85.3882C106.794 86.16 106.828 86.8022 106.871 87.315C106.925 87.824 106.976 88.2369 107.026 88.5538C107.076 88.9231 107.13 89.2119 107.187 89.4202C107.251 89.6145 107.335 89.8222 107.438 90.0435C107.522 90.2302 107.636 90.4478 107.778 90.6961C107.923 90.9374 108.102 91.1901 108.314 91.4543L105.223 90.1787C105.292 90.1422 105.349 90.0867 105.392 90.0123C105.446 89.9342 105.49 89.8598 105.524 89.7891C105.56 89.7114 105.593 89.6232 105.622 89.5247C105.647 89.3983 105.66 89.1796 105.659 88.8686C105.664 88.6028 105.657 88.2238 105.638 87.7315C105.623 87.2321 105.59 86.5688 105.54 85.7417L104.194 86.2605C104.052 86.47 103.938 86.6666 103.851 86.8503C103.765 87.0341 103.7 87.1893 103.658 87.3161C103.609 87.4745 103.577 87.6151 103.563 87.7377C103.555 87.8637 103.558 88.0122 103.573 88.1831C103.58 88.3332 103.598 88.5145 103.627 88.727C103.657 88.9395 103.706 89.183 103.775 89.4575C103.633 89.3385 103.484 89.2336 103.328 89.1428C103.175 89.045 103.033 88.9609 102.903 88.8906C102.75 88.8102 102.6 88.7438 102.452 88.6914C102.297 88.6355 102.114 88.5751 101.903 88.5101C101.72 88.4585 101.495 88.3955 101.228 88.3214C100.96 88.2472 100.653 88.167 100.305 88.0807C100.503 88.0621 100.674 88.0214 100.815 87.9587C100.957 87.896 101.08 87.8285 101.183 87.7562C101.3 87.6731 101.394 87.5836 101.465 87.4876C101.523 87.4024 101.626 87.2095 101.777 86.909C101.934 86.6117 102.108 86.2617 102.297 85.8589C102.498 85.4524 102.701 85.0213 102.907 84.5657C103.113 84.1101 103.306 83.6827 103.485 83.2836C103.665 82.8846 103.812 82.5439 103.928 82.2616C104.054 81.9756 104.129 81.7991 104.152 81.7322C104.177 81.6233 104.199 81.504 104.217 81.3742C104.228 81.2586 104.227 81.1329 104.213 80.9969C104.21 80.8572 104.188 80.7127 104.146 80.5633ZM110.277 83.8547C110.765 84.102 111.17 84.3058 111.491 84.4661C111.824 84.6226 112.092 84.7492 112.297 84.8458L112.859 85.1106L116.018 86.5995C115.965 86.7475 115.911 86.8903 115.855 87.0279C115.809 87.1617 115.763 87.2781 115.716 87.3771C115.659 87.4972 115.604 87.6051 115.551 87.7007C115.497 87.7963 115.436 87.8973 115.369 88.0037C115.308 88.096 115.244 88.1953 115.177 88.3017C115.109 88.4081 115.029 88.5131 114.937 88.6166C115.018 88.1883 115.021 87.8353 114.944 87.5575C114.875 87.283 114.777 87.0598 114.651 86.888C114.503 86.6888 114.321 86.534 114.106 86.4237C113.809 86.3012 113.571 86.2194 113.392 86.1781C113.213 86.1368 113.062 86.1263 112.941 86.1466C112.819 86.1669 112.713 86.2078 112.624 86.2693C112.545 86.3271 112.457 86.3938 112.361 86.4694C112.279 86.5342 112.178 86.6466 112.059 86.8066C111.954 86.9384 111.824 87.1231 111.669 87.3609C111.521 87.602 111.334 87.9156 111.109 88.3018C111.326 88.3352 111.503 88.3538 111.639 88.3576C111.783 88.3647 111.898 88.3673 111.986 88.3653C112.083 88.3595 112.158 88.3473 112.21 88.3286C112.258 88.2995 112.337 88.2418 112.447 88.1554C112.536 88.0764 112.656 87.9688 112.807 87.8325C112.964 87.6995 113.166 87.5096 113.412 87.2628C113.273 87.5945 113.152 87.8699 113.049 88.089C112.949 88.301 112.871 88.4758 112.814 88.6134C112.741 88.7689 112.686 88.8942 112.65 88.9894L112.46 89.3922C112.39 89.5406 112.295 89.742 112.175 89.9964C112.066 90.2471 111.928 90.5666 111.763 90.9549C111.801 90.6534 111.82 90.4118 111.819 90.2301C111.829 90.0447 111.827 89.9014 111.814 89.8004C111.801 89.6819 111.782 89.5949 111.756 89.5396C111.713 89.5022 111.653 89.4564 111.575 89.4023C111.5 89.3586 111.403 89.3084 111.283 89.2518C111.17 89.1985 111.016 89.1479 110.823 89.1C110.619 89.4786 110.467 89.7915 110.368 90.0384C110.279 90.2816 110.222 90.4751 110.198 90.619C110.163 90.784 110.156 90.91 110.175 90.9969C110.209 91.0905 110.311 91.2035 110.482 91.3358C110.656 91.4611 110.865 91.5768 111.108 91.683C111.362 91.7854 111.633 91.8613 111.921 91.9105C112.209 91.9597 112.49 91.9497 112.764 91.8805C112.976 91.8161 113.215 91.7215 113.481 91.5965C113.706 91.4864 113.966 91.3371 114.262 91.1485C114.566 90.9632 114.892 90.7197 115.241 90.4181C115.063 90.7228 114.917 90.9778 114.803 91.1831C114.699 91.3847 114.611 91.5458 114.536 91.6663C114.452 91.8081 114.388 91.9162 114.345 91.9906C114.305 92.0754 114.238 92.1905 114.143 92.336C114.066 92.4636 113.954 92.6357 113.809 92.8522C113.674 93.065 113.499 93.3365 113.283 93.6665C112.947 93.517 112.63 93.3759 112.329 93.243C112.033 93.1031 111.769 92.9834 111.54 92.8839C111.268 92.7644 111.017 92.6549 110.788 92.5554C110.555 92.4455 110.292 92.3345 109.999 92.2225C109.745 92.12 109.442 92.003 109.089 91.8714C108.744 91.7431 108.358 91.6088 107.932 91.4684C108.194 91.0045 108.432 90.5639 108.646 90.1465C108.87 89.7254 109.062 89.354 109.223 89.0323C109.41 88.654 109.576 88.3006 109.722 87.9722C110.141 87.1762 110.436 86.5123 110.609 85.9806C110.782 85.4488 110.859 85.0923 110.841 84.911C110.822 84.8416 110.79 84.7532 110.746 84.6459C110.709 84.5594 110.652 84.4506 110.576 84.3196C110.499 84.1885 110.4 84.0336 110.277 83.8547ZM117.052 86.4392C117.261 86.5811 117.451 86.7095 117.622 86.8243C117.796 86.9321 117.946 87.0248 118.074 87.1022C118.219 87.1967 118.349 87.2793 118.462 87.35C118.601 87.4412 118.835 87.5214 119.165 87.5906C119.499 87.6527 119.857 87.7353 120.24 87.8382C120.634 87.9374 121.02 88.0718 121.398 88.2412C121.779 88.4036 122.09 88.6323 122.331 88.9273C122.572 89.2222 122.756 89.4905 122.884 89.7322C123.012 89.9739 123.093 90.2062 123.126 90.4291C123.169 90.6482 123.173 90.8613 123.136 91.0684C123.098 91.2754 123.032 91.4902 122.936 91.7126C122.775 92.0343 122.549 92.3122 122.258 92.5461C122.134 92.6433 121.986 92.7376 121.813 92.829C121.651 92.9166 121.466 92.9891 121.258 93.0463C121.049 93.1036 120.816 93.1405 120.558 93.1569C120.306 93.1767 120.027 93.1658 119.718 93.124C119.943 93.325 120.115 93.5184 120.235 93.7044C120.362 93.8936 120.456 94.0592 120.519 94.201C120.593 94.3741 120.637 94.5286 120.65 94.6645C120.658 94.8496 120.651 95.0018 120.629 95.1211C120.608 95.2404 120.577 95.3512 120.538 95.4535C120.508 95.552 120.481 95.6557 120.456 95.7647C120.43 95.8736 120.423 96.0083 120.434 96.1688C120.443 96.2944 120.462 96.4285 120.49 96.5712C120.517 96.6964 120.552 96.8336 120.594 96.9829C120.643 97.1355 120.715 97.2946 120.81 97.4602C120.608 97.374 120.423 97.2909 120.253 97.211C120.091 97.1344 119.949 97.0678 119.829 97.0111C119.688 96.9445 119.555 96.8777 119.431 96.8107C119.308 96.7436 119.15 96.6652 118.959 96.5752C118.797 96.4986 118.588 96.4004 118.334 96.2805C118.087 96.1639 117.785 96.0259 117.428 95.8664C117.64 95.8195 117.824 95.7593 117.98 95.6858C118.135 95.6123 118.264 95.5394 118.368 95.4671C118.484 95.3841 118.582 95.2962 118.66 95.2035C118.786 95.0293 118.882 94.8331 118.951 94.6149C119.013 94.4282 119.048 94.2072 119.056 93.9519C119.067 93.6895 119.022 93.4005 118.92 93.0848C118.699 93.0236 118.512 92.9702 118.361 92.9248C118.22 92.8757 118.097 92.8349 117.991 92.8024C117.871 92.7632 117.775 92.7305 117.701 92.7043C117.634 92.6813 117.56 92.6551 117.479 92.6255C117.412 92.6026 117.336 92.5799 117.252 92.5574C117.178 92.5312 117.106 92.5101 117.035 92.4943C116.878 92.7915 116.753 93.0565 116.661 93.2893C116.571 93.515 116.502 93.7071 116.454 93.8655C116.399 94.0555 116.359 94.2224 116.334 94.3663C116.31 94.5101 116.301 94.6571 116.308 94.8072C116.311 94.9295 116.324 95.0655 116.349 95.2152C116.377 95.3578 116.423 95.4878 116.489 95.6051C116.305 95.5185 116.128 95.4352 115.959 95.3553C115.796 95.2787 115.65 95.2052 115.519 95.1348C115.363 95.0616 115.216 94.9881 115.078 94.9144C114.94 94.8407 114.783 94.7622 114.606 94.679C114.458 94.609 114.281 94.5258 114.076 94.4292C113.878 94.3359 113.661 94.2378 113.425 94.135C113.698 94.0308 113.92 93.9365 114.089 93.8522C114.258 93.7679 114.393 93.6932 114.493 93.6279C114.603 93.559 114.682 93.4925 114.729 93.4285C114.797 93.3221 114.902 93.1257 115.046 92.8393C115.2 92.5491 115.37 92.2149 115.557 91.8366C115.744 91.4583 115.936 91.0607 116.133 90.6438C116.329 90.2268 116.509 89.8365 116.672 89.4727C116.838 89.1019 116.979 88.7841 117.095 88.5193C117.211 88.2545 117.282 88.0851 117.309 88.0111C117.347 87.8739 117.361 87.7251 117.351 87.5645C117.347 87.4248 117.326 87.2593 117.287 87.068C117.247 86.8767 117.169 86.6671 117.052 86.4392ZM119.3 92.059C119.391 92.05 119.471 92.0359 119.54 92.0168C119.61 91.9977 119.684 91.9505 119.763 91.8753C119.845 91.793 119.938 91.6686 120.042 91.5019C120.154 91.3385 120.299 91.1132 120.477 90.826C120.649 90.5355 120.746 90.2746 120.768 90.0434C120.798 89.8156 120.783 89.6185 120.723 89.4521C120.674 89.282 120.592 89.1441 120.478 89.0384C120.374 88.929 120.273 88.851 120.174 88.8043C119.976 88.7111 119.753 88.6796 119.506 88.7098C119.258 88.74 119.037 88.8342 118.841 88.9925C118.763 89.0677 118.659 89.2047 118.531 89.4034C118.423 89.5771 118.289 89.8249 118.129 90.1466C117.969 90.4684 117.778 90.9009 117.556 91.4442C117.805 91.6132 118.033 91.7425 118.241 91.832C118.453 91.9145 118.638 91.9713 118.796 92.0026C118.982 92.0472 119.15 92.066 119.3 92.059ZM122.223 96.9084C122.494 96.993 122.672 97.1286 122.756 97.3154C122.848 97.5055 122.84 97.7049 122.733 97.9135C122.676 98.0162 122.615 98.091 122.55 98.138C122.485 98.1849 122.412 98.2111 122.332 98.2164C122.262 98.2181 122.179 98.2095 122.085 98.1907C122 98.1682 121.902 98.139 121.789 98.1032C121.673 98.0744 121.572 98.0226 121.487 97.9477C121.404 97.8658 121.339 97.7746 121.292 97.6744C121.244 97.5742 121.213 97.4735 121.201 97.3725C121.195 97.2747 121.21 97.187 121.247 97.1093C121.287 97.0245 121.341 96.9638 121.41 96.9273C121.49 96.887 121.575 96.8623 121.666 96.8532C121.767 96.8404 121.861 96.8417 121.949 96.8571C122.047 96.8688 122.138 96.8859 122.223 96.9084ZM133.439 94.1371C133.234 94.3166 133.052 94.4729 132.895 94.6058C132.737 94.7388 132.602 94.852 132.488 94.9455C132.362 95.0498 132.252 95.145 132.16 95.231C132.088 95.2921 131.992 95.3764 131.872 95.484C131.759 95.5775 131.613 95.7032 131.435 95.8611C131.267 96.0153 131.048 96.2143 130.778 96.4583C130.838 96.1668 130.868 95.9005 130.869 95.6593C130.871 95.4181 130.854 95.1984 130.817 95C130.781 94.8016 130.725 94.6282 130.648 94.4797C130.582 94.3275 130.507 94.1929 130.424 94.076C130.229 93.8115 129.99 93.6038 129.707 93.4531C129.315 93.2945 128.985 93.2165 128.716 93.2192C128.457 93.2183 128.247 93.2616 128.085 93.3492C127.926 93.4298 127.809 93.5391 127.736 93.6771C127.665 93.808 127.63 93.9294 127.629 94.0413C127.624 94.1427 127.701 94.3 127.86 94.513C128.026 94.7293 128.226 94.9833 128.46 95.2749C128.704 95.5628 128.959 95.8819 129.226 96.2322C129.496 96.5754 129.728 96.9265 129.922 97.2854C130.126 97.6407 130.27 97.9938 130.355 98.3448C130.451 98.692 130.442 99.012 130.33 99.3047C130.182 99.6751 130.025 99.9985 129.86 100.275C129.695 100.551 129.48 100.752 129.213 100.877C128.947 101.002 128.606 101.04 128.189 100.99C127.779 100.944 127.252 100.786 126.61 100.518C125.947 100.24 125.43 99.9531 125.06 99.6576C124.689 99.3622 124.413 99.068 124.232 98.7752C124.057 98.4857 123.955 98.2085 123.924 97.9436C123.901 97.682 123.904 97.446 123.934 97.2357C123.967 97.0182 124.005 96.8373 124.047 96.6931C124.093 96.5417 124.097 96.4403 124.061 96.3887C124.021 96.3267 123.98 96.2683 123.936 96.2134C123.9 96.1618 123.859 96.1121 123.812 96.0642C123.769 96.0093 123.724 95.9579 123.678 95.9101L126.997 96.8658C126.754 96.9238 126.555 96.9896 126.399 97.0631C126.25 97.14 126.13 97.2127 126.037 97.2812C125.931 97.3606 125.845 97.4412 125.781 97.5231C125.72 97.6153 125.693 97.754 125.701 97.939C125.709 98.1241 125.747 98.3189 125.814 98.5235C125.892 98.7244 126.002 98.9141 126.142 99.0926C126.282 99.271 126.455 99.3998 126.659 99.479C126.917 99.5743 127.147 99.6092 127.349 99.5835C127.554 99.5508 127.732 99.475 127.883 99.3562C128.041 99.2407 128.171 99.0944 128.272 98.9173C128.372 98.7403 128.44 98.5517 128.473 98.3517C128.518 98.148 128.527 97.9451 128.501 97.743C128.479 97.5338 128.426 97.3446 128.341 97.1753C128.261 97.0339 128.112 96.8644 127.894 96.6667C127.684 96.4724 127.444 96.256 127.177 96.0176C126.916 95.7825 126.652 95.5283 126.383 95.2549C126.122 94.9849 125.902 94.6999 125.724 94.4C125.553 94.1034 125.446 93.7984 125.404 93.4848C125.369 93.1746 125.449 92.8582 125.644 92.5357C125.809 92.2592 126.014 92.0623 126.259 91.9447C126.515 91.8235 126.79 91.7629 127.083 91.7631C127.387 91.7595 127.701 91.7994 128.024 91.8828C128.355 91.9695 128.677 92.0826 128.992 92.2221C129.316 92.3578 129.626 92.5079 129.919 92.6723C130.22 92.8401 130.488 92.9964 130.722 93.1412C130.956 93.2861 131.151 93.4126 131.307 93.5208C131.474 93.6253 131.577 93.6911 131.616 93.7181C131.793 93.8188 131.978 93.9019 132.172 93.9673C132.341 94.0298 132.533 94.0813 132.747 94.1217C132.972 94.1584 133.202 94.1636 133.439 94.1371ZM132.707 94.4267C133.195 94.674 133.6 94.8778 133.922 95.0381C134.254 95.1946 134.522 95.3212 134.727 95.4178L135.289 95.6826L138.448 97.1714C138.396 97.3194 138.341 97.4622 138.285 97.5998C138.239 97.7337 138.193 97.8501 138.146 97.949C138.09 98.0692 138.035 98.1771 137.981 98.2727C137.927 98.3683 137.867 98.4693 137.799 98.5757C137.738 98.668 137.674 98.7673 137.607 98.8737C137.539 98.9801 137.46 99.0851 137.368 99.1885C137.449 98.7603 137.451 98.4073 137.375 98.1295C137.305 97.855 137.208 97.6318 137.081 97.46C136.933 97.2608 136.752 97.106 136.536 96.9956C136.239 96.8732 136.002 96.7914 135.822 96.7501C135.643 96.7088 135.493 96.6983 135.371 96.7186C135.249 96.7389 135.143 96.7798 135.054 96.8413C134.975 96.8991 134.887 96.9657 134.791 97.0414C134.709 97.1062 134.608 97.2186 134.49 97.3786C134.384 97.5104 134.254 97.6951 134.099 97.9329C133.951 98.174 133.764 98.4876 133.539 98.8737C133.756 98.9071 133.933 98.9258 134.07 98.9296C134.213 98.9367 134.329 98.9393 134.416 98.9373C134.514 98.9315 134.588 98.9193 134.64 98.9006C134.689 98.8715 134.768 98.8138 134.878 98.7274C134.967 98.6484 135.086 98.5408 135.237 98.4045C135.395 98.2715 135.596 98.0816 135.842 97.8348C135.703 98.1665 135.582 98.4419 135.479 98.661C135.379 98.873 135.301 99.0478 135.245 99.1854C135.171 99.3409 135.117 99.4662 135.08 99.5614L134.891 99.9642C134.821 100.113 134.726 100.314 134.606 100.568C134.496 100.819 134.359 101.139 134.193 101.527C134.231 101.225 134.25 100.984 134.249 100.802C134.259 100.617 134.258 100.473 134.245 100.372C134.231 100.254 134.212 100.167 134.186 100.112C134.143 100.074 134.083 100.028 134.005 99.9743C133.93 99.9306 133.833 99.8804 133.713 99.8238C133.6 99.7705 133.447 99.7199 133.253 99.6719C133.049 100.051 132.897 100.363 132.798 100.61C132.709 100.854 132.653 101.047 132.628 101.191C132.594 101.356 132.586 101.482 132.605 101.569C132.639 101.663 132.741 101.775 132.912 101.908C133.086 102.033 133.295 102.149 133.539 102.255C133.793 102.357 134.064 102.433 134.351 102.482C134.639 102.532 134.92 102.522 135.195 102.452C135.406 102.388 135.645 102.293 135.911 102.168C136.136 102.058 136.396 101.909 136.693 101.72C136.996 101.535 137.322 101.292 137.672 100.99C137.494 101.295 137.347 101.55 137.233 101.755C137.13 101.957 137.041 102.118 136.967 102.238C136.883 102.38 136.819 102.488 136.775 102.563C136.735 102.647 136.668 102.762 136.573 102.908C136.496 103.036 136.385 103.208 136.239 103.424C136.105 103.637 135.929 103.908 135.713 104.238C135.378 104.089 135.06 103.948 134.76 103.815C134.463 103.675 134.2 103.555 133.97 103.456C133.698 103.336 133.448 103.227 133.218 103.127C132.985 103.017 132.722 102.906 132.429 102.794C132.175 102.692 131.872 102.575 131.52 102.443C131.174 102.315 130.788 102.181 130.362 102.04C130.624 101.576 130.862 101.136 131.076 100.718C131.3 100.297 131.493 99.926 131.653 99.6042C131.84 99.226 132.006 98.8726 132.153 98.5442C132.571 97.7482 132.867 97.0843 133.039 96.5526C133.212 96.0208 133.29 95.6643 133.272 95.483C133.252 95.4136 133.221 95.3252 133.176 95.2179C133.139 95.1314 133.083 95.0226 133.006 94.8916C132.93 94.7605 132.83 94.6056 132.707 94.4267Z" fill="#DBB5B5"/>
</g>
<defs>
<filter id="filter0_d_8_6" x="0" y="0" width="159" height="164" filterUnits="userSpaceOnUse" color-interpolation-filters="sRGB">
<feFlood flood-opacity="0" result="BackgroundImageFix"/>
<feColorMatrix in="SourceAlpha" type="matrix" values="0 0 0 0 0 0 0 0 0 0 0 0 0 0 0 0 0 0 127 0" result="hardAlpha"/>
<feOffset dy="4"/>
<feGaussianBlur stdDeviation="2"/>
<feComposite in2="hardAlpha" operator="out"/>
<feColorMatrix type="matrix" values="0 0 0 0 0 0 0 0 0 0 0 0 0 0 0 0 0 0 0.25 0"/>
<feBlend mode="normal" in2="BackgroundImageFix" result="effect1_dropShadow_8_6"/>
<feBlend mode="normal" in="SourceGraphic" in2="effect1_dropShadow_8_6" result="shape"/>
</filter>
<filter id="filter1_d_8_6" x="17.1912" y="42.7314" width="126.474" height="70.1807" filterUnits="userSpaceOnUse" color-interpolation-filters="sRGB">
<feFlood flood-opacity="0" result="BackgroundImageFix"/>
<feColorMatrix in="SourceAlpha" type="matrix" values="0 0 0 0 0 0 0 0 0 0 0 0 0 0 0 0 0 0 127 0" result="hardAlpha"/>
<feOffset dy="4"/>
<feGaussianBlur stdDeviation="2"/>
<feComposite in2="hardAlpha" operator="out"/>
<feColorMatrix type="matrix" values="0 0 0 0 0 0 0 0 0 0 0 0 0 0 0 0 0 0 0.25 0"/>
<feBlend mode="normal" in2="BackgroundImageFix" result="effect1_dropShadow_8_6"/>
<feBlend mode="normal" in="SourceGraphic" in2="effect1_dropShadow_8_6" result="shape"/>
</filter>
</defs>
</svg>
